<svg xmlns="http://www.w3.org/2000/svg" width="50" height="50" viewBox="0 0 50 50">
    <path fill="#FFF" fill-rule="nonzero" d="M44.766 25.996c-.323-3.318-.758-6.628-1.012-9.953C43.136 7.977 36.81 1.183 28.898.109 28.041-.007 25.782-.003 25 .002c-.782-.005-3.042-.01-3.898.107-7.911 1.074-14.24 7.868-14.857 15.934-.255 3.325-.688 6.635-1.011 9.953C4.57 32.815 4.638 44 15.024 44h19.952c10.385 0 10.455-11.184 9.79-18.004zM20.686 3h8.628C30.245 3 31 3.672 31 4.5c0 .829-.755 1.5-1.686 1.5h-8.628C19.756 6 19 5.329 19 4.5c0-.828.755-1.5 1.686-1.5zm-9.565 10.997c.269-2.79 2.515-4.91 5.197-4.996.005 0 .007.003.012.003L33.67 9c.005.004.008.002.012.001 2.682.085 4.928 2.207 5.197 4.996a25.561 25.561 0 0 1-.01 5.066c-.287 2.768-2.624 4.885-5.298 4.936L16.43 24c-2.673-.052-5.011-2.17-5.298-4.937a25.473 25.473 0 0 1-.01-5.066zM13 37a3 3 0 1 1 0-6 3 3 0 0 1 0 6zm24 0a3 3 0 1 1 0-6 3 3 0 0 1 0 6zm1.085 9H11.914C10.857 46 10 46.895 10 48s.857 2 1.914 2h26.172C39.143 50 40 49.105 40 48s-.857-2-1.915-2z"/>
</svg>